<mxfile host="app.diagrams.net" modified="2024-05-26T11:29:09.436Z" agent="Mozilla/5.0 (Windows NT 10.0; Win64; x64; rv:126.0) Gecko/20100101 Firefox/126.0" etag="1g_ijeZxaJ7ow-uAOpHj" version="24.0.1" type="github">
  <diagram id="R2lEEEUBdFMjLlhIrx00" name="Page-1">
    <mxGraphModel dx="1584" dy="478" grid="0" gridSize="10" guides="1" tooltips="1" connect="1" arrows="1" fold="1" page="1" pageScale="1" pageWidth="850" pageHeight="1100" math="0" shadow="0" extFonts="Permanent Marker^https://fonts.googleapis.com/css?family=Permanent+Marker">
      <root>
        <mxCell id="0" />
        <mxCell id="1" parent="0" />
        <mxCell id="n60h2DSmVMfN_KLsbinU-1" value="中心侧" style="rounded=0;whiteSpace=wrap;html=1;" vertex="1" parent="1">
          <mxGeometry x="-260" y="366" width="120" height="60" as="geometry" />
        </mxCell>
        <mxCell id="n60h2DSmVMfN_KLsbinU-3" value="工厂侧" style="rounded=0;whiteSpace=wrap;html=1;" vertex="1" parent="1">
          <mxGeometry x="150" y="366" width="120" height="60" as="geometry" />
        </mxCell>
        <mxCell id="n60h2DSmVMfN_KLsbinU-4" value="接口平台" style="rounded=0;whiteSpace=wrap;html=1;" vertex="1" parent="1">
          <mxGeometry x="-260" y="226" width="120" height="60" as="geometry" />
        </mxCell>
        <mxCell id="n60h2DSmVMfN_KLsbinU-6" value="中心DB" style="shape=cylinder3;whiteSpace=wrap;html=1;boundedLbl=1;backgroundOutline=1;size=15;" vertex="1" parent="1">
          <mxGeometry x="-230" y="496" width="60" height="80" as="geometry" />
        </mxCell>
        <mxCell id="n60h2DSmVMfN_KLsbinU-7" value="工厂DB" style="shape=cylinder3;whiteSpace=wrap;html=1;boundedLbl=1;backgroundOutline=1;size=15;" vertex="1" parent="1">
          <mxGeometry x="180" y="496" width="60" height="80" as="geometry" />
        </mxCell>
        <mxCell id="n60h2DSmVMfN_KLsbinU-8" value="" style="endArrow=none;dashed=1;html=1;dashPattern=1 3;strokeWidth=2;rounded=0;" edge="1" parent="1">
          <mxGeometry width="50" height="50" relative="1" as="geometry">
            <mxPoint y="666" as="sourcePoint" />
            <mxPoint y="106" as="targetPoint" />
          </mxGeometry>
        </mxCell>
        <mxCell id="n60h2DSmVMfN_KLsbinU-12" value="" style="endArrow=classic;html=1;rounded=0;" edge="1" parent="1" source="n60h2DSmVMfN_KLsbinU-2">
          <mxGeometry width="50" height="50" relative="1" as="geometry">
            <mxPoint x="10" y="446" as="sourcePoint" />
            <mxPoint x="60" y="396" as="targetPoint" />
          </mxGeometry>
        </mxCell>
        <mxCell id="n60h2DSmVMfN_KLsbinU-2" value="MQ" style="rounded=0;whiteSpace=wrap;html=1;" vertex="1" parent="1">
          <mxGeometry x="-60" y="366" width="120" height="60" as="geometry" />
        </mxCell>
        <mxCell id="n60h2DSmVMfN_KLsbinU-20" value="" style="endArrow=classic;startArrow=classic;html=1;rounded=0;exitX=0.5;exitY=0;exitDx=0;exitDy=0;exitPerimeter=0;entryX=0.5;entryY=1;entryDx=0;entryDy=0;" edge="1" parent="1" source="n60h2DSmVMfN_KLsbinU-6" target="n60h2DSmVMfN_KLsbinU-1">
          <mxGeometry width="50" height="50" relative="1" as="geometry">
            <mxPoint x="-150" y="496" as="sourcePoint" />
            <mxPoint x="-100" y="446" as="targetPoint" />
          </mxGeometry>
        </mxCell>
        <mxCell id="n60h2DSmVMfN_KLsbinU-21" value="" style="endArrow=classic;startArrow=classic;html=1;rounded=0;entryX=0.5;entryY=1;entryDx=0;entryDy=0;" edge="1" parent="1" target="n60h2DSmVMfN_KLsbinU-4">
          <mxGeometry width="50" height="50" relative="1" as="geometry">
            <mxPoint x="-200" y="366" as="sourcePoint" />
            <mxPoint x="-150" y="316" as="targetPoint" />
          </mxGeometry>
        </mxCell>
        <mxCell id="n60h2DSmVMfN_KLsbinU-33" value="" style="endArrow=classic;html=1;rounded=0;exitX=0;exitY=0.5;exitDx=0;exitDy=0;exitPerimeter=0;entryX=0.7;entryY=1;entryDx=0;entryDy=0;entryPerimeter=0;" edge="1" parent="1" source="n60h2DSmVMfN_KLsbinU-7">
          <mxGeometry relative="1" as="geometry">
            <mxPoint x="190" y="536" as="sourcePoint" />
            <mxPoint x="20" y="436" as="targetPoint" />
            <Array as="points">
              <mxPoint x="20" y="536" />
            </Array>
          </mxGeometry>
        </mxCell>
        <mxCell id="n60h2DSmVMfN_KLsbinU-34" value="8、发布落库状态消息" style="edgeLabel;resizable=0;html=1;;align=center;verticalAlign=middle;" connectable="0" vertex="1" parent="n60h2DSmVMfN_KLsbinU-33">
          <mxGeometry relative="1" as="geometry">
            <mxPoint x="40" as="offset" />
          </mxGeometry>
        </mxCell>
        <mxCell id="n60h2DSmVMfN_KLsbinU-35" value="" style="endArrow=classic;html=1;rounded=0;exitX=0.096;exitY=1.04;exitDx=0;exitDy=0;entryX=0.75;entryY=1;entryDx=0;entryDy=0;exitPerimeter=0;" edge="1" parent="1" source="n60h2DSmVMfN_KLsbinU-51">
          <mxGeometry relative="1" as="geometry">
            <mxPoint x="50" y="426" as="sourcePoint" />
            <mxPoint x="-150" y="426" as="targetPoint" />
            <Array as="points">
              <mxPoint x="-20" y="536" />
              <mxPoint x="-150" y="536" />
            </Array>
          </mxGeometry>
        </mxCell>
        <mxCell id="n60h2DSmVMfN_KLsbinU-70" value="9、订阅落库状态" style="edgeLabel;html=1;align=center;verticalAlign=middle;resizable=0;points=[];" vertex="1" connectable="0" parent="n60h2DSmVMfN_KLsbinU-35">
          <mxGeometry x="0.1287" y="-1" relative="1" as="geometry">
            <mxPoint x="18" y="1" as="offset" />
          </mxGeometry>
        </mxCell>
        <mxCell id="n60h2DSmVMfN_KLsbinU-37" value="" style="endArrow=classic;html=1;rounded=0;entryX=0.25;entryY=0;entryDx=0;entryDy=0;exitX=0.896;exitY=-0.042;exitDx=0;exitDy=0;exitPerimeter=0;" edge="1" parent="1" source="n60h2DSmVMfN_KLsbinU-1" target="n60h2DSmVMfN_KLsbinU-50">
          <mxGeometry relative="1" as="geometry">
            <mxPoint x="-140" y="395.5" as="sourcePoint" />
            <mxPoint x="-40" y="395.5" as="targetPoint" />
            <Array as="points">
              <mxPoint x="-152" y="336" />
              <mxPoint x="-12" y="336" />
            </Array>
          </mxGeometry>
        </mxCell>
        <mxCell id="n60h2DSmVMfN_KLsbinU-38" value="1、发布同步数据消息" style="edgeLabel;resizable=0;html=1;;align=center;verticalAlign=middle;" connectable="0" vertex="1" parent="n60h2DSmVMfN_KLsbinU-37">
          <mxGeometry relative="1" as="geometry">
            <mxPoint y="-10" as="offset" />
          </mxGeometry>
        </mxCell>
        <mxCell id="n60h2DSmVMfN_KLsbinU-39" value="" style="endArrow=classic;html=1;rounded=0;entryX=0.131;entryY=0.006;entryDx=0;entryDy=0;exitX=0.68;exitY=-0.031;exitDx=0;exitDy=0;entryPerimeter=0;exitPerimeter=0;" edge="1" parent="1" source="n60h2DSmVMfN_KLsbinU-50" target="n60h2DSmVMfN_KLsbinU-3">
          <mxGeometry relative="1" as="geometry">
            <mxPoint x="-20" y="436" as="sourcePoint" />
            <mxPoint x="80" y="436" as="targetPoint" />
            <Array as="points">
              <mxPoint x="10" y="336" />
              <mxPoint x="166" y="336" />
            </Array>
          </mxGeometry>
        </mxCell>
        <mxCell id="n60h2DSmVMfN_KLsbinU-40" value="2、订阅拉取同步请求消息" style="edgeLabel;resizable=0;html=1;;align=center;verticalAlign=middle;" connectable="0" vertex="1" parent="n60h2DSmVMfN_KLsbinU-39">
          <mxGeometry relative="1" as="geometry">
            <mxPoint y="-10" as="offset" />
          </mxGeometry>
        </mxCell>
        <mxCell id="n60h2DSmVMfN_KLsbinU-43" value="" style="endArrow=classic;html=1;rounded=0;exitX=0.75;exitY=0;exitDx=0;exitDy=0;entryX=1;entryY=0.5;entryDx=0;entryDy=0;" edge="1" parent="1" source="n60h2DSmVMfN_KLsbinU-3" target="n60h2DSmVMfN_KLsbinU-4">
          <mxGeometry relative="1" as="geometry">
            <mxPoint x="210" y="326" as="sourcePoint" />
            <mxPoint x="310" y="326" as="targetPoint" />
            <Array as="points">
              <mxPoint x="240" y="256" />
            </Array>
          </mxGeometry>
        </mxCell>
        <mxCell id="n60h2DSmVMfN_KLsbinU-44" value="3、请求接口平台拉取数据（HTTP）" style="edgeLabel;resizable=0;html=1;;align=center;verticalAlign=middle;" connectable="0" vertex="1" parent="n60h2DSmVMfN_KLsbinU-43">
          <mxGeometry relative="1" as="geometry" />
        </mxCell>
        <mxCell id="n60h2DSmVMfN_KLsbinU-47" value="外部接口" style="rounded=0;whiteSpace=wrap;html=1;" vertex="1" parent="1">
          <mxGeometry x="-461" y="227" width="120" height="60" as="geometry" />
        </mxCell>
        <mxCell id="n60h2DSmVMfN_KLsbinU-48" value="" style="endArrow=classic;html=1;rounded=0;exitX=1;exitY=0.75;exitDx=0;exitDy=0;entryX=0.583;entryY=-0.01;entryDx=0;entryDy=0;entryPerimeter=0;" edge="1" parent="1" source="n60h2DSmVMfN_KLsbinU-4" target="n60h2DSmVMfN_KLsbinU-3">
          <mxGeometry relative="1" as="geometry">
            <mxPoint x="-20" y="436" as="sourcePoint" />
            <mxPoint x="80" y="436" as="targetPoint" />
            <Array as="points">
              <mxPoint x="220" y="271" />
            </Array>
          </mxGeometry>
        </mxCell>
        <mxCell id="n60h2DSmVMfN_KLsbinU-49" value="6、响应请求" style="edgeLabel;resizable=0;html=1;;align=center;verticalAlign=middle;" connectable="0" vertex="1" parent="n60h2DSmVMfN_KLsbinU-48">
          <mxGeometry relative="1" as="geometry" />
        </mxCell>
        <mxCell id="n60h2DSmVMfN_KLsbinU-50" value="topic1" style="rounded=1;whiteSpace=wrap;html=1;" vertex="1" parent="1">
          <mxGeometry x="-25" y="356" width="50" height="20" as="geometry" />
        </mxCell>
        <mxCell id="n60h2DSmVMfN_KLsbinU-51" value="topic2..." style="rounded=1;whiteSpace=wrap;html=1;" vertex="1" parent="1">
          <mxGeometry x="-25" y="416" width="50" height="20" as="geometry" />
        </mxCell>
        <mxCell id="n60h2DSmVMfN_KLsbinU-53" value="4、获取数据" style="text;html=1;align=center;verticalAlign=middle;whiteSpace=wrap;rounded=0;rotation=0;" vertex="1" parent="1">
          <mxGeometry x="-270" y="306" width="70" height="30" as="geometry" />
        </mxCell>
        <mxCell id="n60h2DSmVMfN_KLsbinU-54" value="5.0请求DB" style="text;html=1;align=center;verticalAlign=middle;whiteSpace=wrap;rounded=0;rotation=0;" vertex="1" parent="1">
          <mxGeometry x="-270" y="446" width="70" height="30" as="geometry" />
        </mxCell>
        <mxCell id="n60h2DSmVMfN_KLsbinU-56" value="SAP" style="rounded=1;whiteSpace=wrap;html=1;" vertex="1" parent="1">
          <mxGeometry x="-481" y="217" width="50" height="30" as="geometry" />
        </mxCell>
        <mxCell id="n60h2DSmVMfN_KLsbinU-58" value="主数据" style="rounded=1;whiteSpace=wrap;html=1;" vertex="1" parent="1">
          <mxGeometry x="-481" y="267" width="50" height="30" as="geometry" />
        </mxCell>
        <mxCell id="n60h2DSmVMfN_KLsbinU-62" value="" style="endArrow=classic;html=1;rounded=0;entryX=0;entryY=0.5;entryDx=0;entryDy=0;" edge="1" parent="1">
          <mxGeometry relative="1" as="geometry">
            <mxPoint x="-341" y="256.76" as="sourcePoint" />
            <mxPoint x="-260.9999999999998" y="257" as="targetPoint" />
          </mxGeometry>
        </mxCell>
        <mxCell id="n60h2DSmVMfN_KLsbinU-63" value="Label" style="edgeLabel;resizable=0;html=1;;align=center;verticalAlign=middle;" connectable="0" vertex="1" parent="n60h2DSmVMfN_KLsbinU-62">
          <mxGeometry relative="1" as="geometry" />
        </mxCell>
        <mxCell id="n60h2DSmVMfN_KLsbinU-64" value="5.1获取数据" style="edgeLabel;html=1;align=center;verticalAlign=middle;resizable=0;points=[];" vertex="1" connectable="0" parent="n60h2DSmVMfN_KLsbinU-62">
          <mxGeometry x="-0.001" y="-2" relative="1" as="geometry">
            <mxPoint as="offset" />
          </mxGeometry>
        </mxCell>
        <mxCell id="n60h2DSmVMfN_KLsbinU-68" value="" style="endArrow=classic;html=1;rounded=0;exitX=0.5;exitY=1;exitDx=0;exitDy=0;entryX=0.5;entryY=0;entryDx=0;entryDy=0;entryPerimeter=0;" edge="1" parent="1" source="n60h2DSmVMfN_KLsbinU-3" target="n60h2DSmVMfN_KLsbinU-7">
          <mxGeometry relative="1" as="geometry">
            <mxPoint x="40" y="406" as="sourcePoint" />
            <mxPoint x="140" y="406" as="targetPoint" />
          </mxGeometry>
        </mxCell>
        <mxCell id="n60h2DSmVMfN_KLsbinU-69" value="7、落库" style="edgeLabel;resizable=0;html=1;;align=center;verticalAlign=middle;" connectable="0" vertex="1" parent="n60h2DSmVMfN_KLsbinU-68">
          <mxGeometry relative="1" as="geometry" />
        </mxCell>
        <mxCell id="n60h2DSmVMfN_KLsbinU-72" value="定时任务" style="rounded=0;whiteSpace=wrap;html=1;" vertex="1" parent="1">
          <mxGeometry x="340" y="366" width="120" height="60" as="geometry" />
        </mxCell>
        <mxCell id="n60h2DSmVMfN_KLsbinU-73" value="拉取任务并执行" style="text;html=1;align=center;verticalAlign=middle;whiteSpace=wrap;rounded=0;" vertex="1" parent="1">
          <mxGeometry x="350" y="396" width="100" height="30" as="geometry" />
        </mxCell>
        <mxCell id="n60h2DSmVMfN_KLsbinU-74" value="" style="endArrow=classic;html=1;rounded=0;exitX=1.015;exitY=0.73;exitDx=0;exitDy=0;exitPerimeter=0;entryX=0.3;entryY=1.059;entryDx=0;entryDy=0;entryPerimeter=0;" edge="1" parent="1" target="n60h2DSmVMfN_KLsbinU-73">
          <mxGeometry relative="1" as="geometry">
            <mxPoint x="240.00000000000034" y="533.1100000000001" as="sourcePoint" />
            <mxPoint x="411.0000000000001" y="405.99999999999994" as="targetPoint" />
            <Array as="points">
              <mxPoint x="380" y="533" />
            </Array>
          </mxGeometry>
        </mxCell>
        <mxCell id="n60h2DSmVMfN_KLsbinU-75" value="10、解析落库的数据" style="edgeLabel;resizable=0;html=1;;align=center;verticalAlign=middle;" connectable="0" vertex="1" parent="n60h2DSmVMfN_KLsbinU-74">
          <mxGeometry relative="1" as="geometry">
            <mxPoint x="-42" as="offset" />
          </mxGeometry>
        </mxCell>
        <mxCell id="n60h2DSmVMfN_KLsbinU-76" value="" style="endArrow=classic;html=1;rounded=0;exitX=0.795;exitY=0.979;exitDx=0;exitDy=0;exitPerimeter=0;entryX=1.047;entryY=0.724;entryDx=0;entryDy=0;entryPerimeter=0;" edge="1" parent="1" source="n60h2DSmVMfN_KLsbinU-73" target="n60h2DSmVMfN_KLsbinU-7">
          <mxGeometry relative="1" as="geometry">
            <mxPoint x="220" y="436" as="sourcePoint" />
            <mxPoint x="380" y="516" as="targetPoint" />
            <Array as="points">
              <mxPoint x="430" y="556" />
            </Array>
          </mxGeometry>
        </mxCell>
        <mxCell id="n60h2DSmVMfN_KLsbinU-77" value="11、保存执行结果" style="edgeLabel;resizable=0;html=1;;align=center;verticalAlign=middle;" connectable="0" vertex="1" parent="n60h2DSmVMfN_KLsbinU-76">
          <mxGeometry relative="1" as="geometry">
            <mxPoint x="-33" as="offset" />
          </mxGeometry>
        </mxCell>
        <mxCell id="n60h2DSmVMfN_KLsbinU-78" value="" style="endArrow=classic;html=1;rounded=0;entryX=0.696;entryY=1.02;entryDx=0;entryDy=0;exitX=-0.03;exitY=0.74;exitDx=0;exitDy=0;exitPerimeter=0;entryPerimeter=0;" edge="1" parent="1" source="n60h2DSmVMfN_KLsbinU-7" target="n60h2DSmVMfN_KLsbinU-51">
          <mxGeometry relative="1" as="geometry">
            <mxPoint x="176.15999999999985" y="552.64" as="sourcePoint" />
            <mxPoint x="8.050000000000182" y="435.9999999999999" as="targetPoint" />
            <Array as="points">
              <mxPoint x="10" y="556" />
            </Array>
          </mxGeometry>
        </mxCell>
        <mxCell id="n60h2DSmVMfN_KLsbinU-79" value="12、发布执行状态消息" style="edgeLabel;resizable=0;html=1;;align=center;verticalAlign=middle;" connectable="0" vertex="1" parent="n60h2DSmVMfN_KLsbinU-78">
          <mxGeometry relative="1" as="geometry">
            <mxPoint x="46" as="offset" />
          </mxGeometry>
        </mxCell>
        <mxCell id="n60h2DSmVMfN_KLsbinU-80" value="" style="endArrow=classic;html=1;rounded=0;entryX=0.838;entryY=1.007;entryDx=0;entryDy=0;entryPerimeter=0;" edge="1" parent="1" target="n60h2DSmVMfN_KLsbinU-1">
          <mxGeometry relative="1" as="geometry">
            <mxPoint x="-10" y="436" as="sourcePoint" />
            <mxPoint y="436" as="targetPoint" />
            <Array as="points">
              <mxPoint x="-10" y="556" />
              <mxPoint x="-160" y="556" />
            </Array>
          </mxGeometry>
        </mxCell>
        <mxCell id="n60h2DSmVMfN_KLsbinU-81" value="13、订阅执行状态" style="edgeLabel;resizable=0;html=1;;align=center;verticalAlign=middle;" connectable="0" vertex="1" parent="n60h2DSmVMfN_KLsbinU-80">
          <mxGeometry relative="1" as="geometry" />
        </mxCell>
        <mxCell id="n60h2DSmVMfN_KLsbinU-83" value="集团" style="text;html=1;align=center;verticalAlign=middle;whiteSpace=wrap;rounded=0;" vertex="1" parent="1">
          <mxGeometry x="-80" y="146" width="60" height="30" as="geometry" />
        </mxCell>
        <mxCell id="n60h2DSmVMfN_KLsbinU-84" value="工厂" style="text;html=1;align=center;verticalAlign=middle;whiteSpace=wrap;rounded=0;" vertex="1" parent="1">
          <mxGeometry x="20" y="146" width="60" height="30" as="geometry" />
        </mxCell>
      </root>
    </mxGraphModel>
  </diagram>
</mxfile>
